<?xml version="1.0" encoding="UTF-8"?>
<svg width="285" height="400" viewBox="0 0 285 400" fill="none" xmlns="http://www.w3.org/2000/svg">
  <rect width="285" height="400" fill="#1F1F1F"/>
  <path d="M142.5 150C166.747 150 186.5 130.247 186.5 106C186.5 81.7527 166.747 62 142.5 62C118.253 62 98.5 81.7527 98.5 106C98.5 130.247 118.253 150 142.5 150Z" fill="#2F2F2F"/>
  <path d="M142.5 170C177.183 170 205 142.183 205 107.5C205 72.8172 177.183 45 142.5 45C107.817 45 80 72.8172 80 107.5C80 142.183 107.817 170 142.5 170Z" stroke="#3F3F3F" stroke-width="2"/>
  <path d="M142.5 200C177.183 200 205 172.183 205 137.5C205 102.817 177.183 75 142.5 75C107.817 75 80 102.817 80 137.5C80 172.183 107.817 200 142.5 200Z" stroke="#3F3F3F" stroke-width="2"/>
  <path d="M142.5 230C177.183 230 205 202.183 205 167.5C205 132.817 177.183 105 142.5 105C107.817 105 80 132.817 80 167.5C80 202.183 107.817 230 142.5 230Z" stroke="#3F3F3F" stroke-width="2"/>
  <path d="M142.5 260C177.183 260 205 232.183 205 197.5C205 162.817 177.183 135 142.5 135C107.817 135 80 162.817 80 197.5C80 232.183 107.817 260 142.5 260Z" stroke="#3F3F3F" stroke-width="2"/>
  <path d="M142.5 290C177.183 290 205 262.183 205 227.5C205 192.817 177.183 165 142.5 165C107.817 165 80 192.817 80 227.5C80 262.183 107.817 290 142.5 290Z" stroke="#3F3F3F" stroke-width="2"/>
  <path d="M142.5 320C177.183 320 205 292.183 205 257.5C205 222.817 177.183 195 142.5 195C107.817 195 80 222.817 80 257.5C80 292.183 107.817 320 142.5 320Z" stroke="#3F3F3F" stroke-width="2"/>
  <path d="M142.5 350C177.183 350 205 322.183 205 287.5C205 252.817 177.183 225 142.5 225C107.817 225 80 252.817 80 287.5C80 322.183 107.817 350 142.5 350Z" stroke="#3F3F3F" stroke-width="2"/>
</svg> 